<?xml version="1.0" encoding="utf-8"?>
<!-- Generator: Adobe Illustrator 24.0.2, SVG Export Plug-In . SVG Version: 6.00 Build 0)  -->
<svg version="1.1" id="Capa_1" xmlns="http://www.w3.org/2000/svg" xmlns:xlink="http://www.w3.org/1999/xlink" x="0px" y="0px"
	 viewBox="0 0 595.28 841.89" style="enable-background:new 0 0 595.28 841.89;" xml:space="preserve">
<style type="text/css">
	.st0{fill:#1AA6B0;}
	.st1{fill:#006978;}
</style>
<circle id="XMLID_673_" class="st0" cx="325.94" cy="365.54" r="16.34"/>
<path id="XMLID_672_" class="st1" d="M315.71,461.13c-16.3,0-29.51-16.57-29.51-37.01h-0.02v-91.74c0-9.22-7.48-16.7-16.7-16.7
	c-9.22,0-16.7,7.48-16.7,16.7v103.26l0.07-0.25c0,23.69,19.97,42.9,44.61,42.9c22.32,0,40.81-15.52,44.1-36.1l0.08-0.43
	C336.66,453.3,326.92,461.13,315.71,461.13z"/>
<path id="XMLID_671_" d="M287.18,415.78"/>
<path id="XMLID_670_" d="M261.12,387.59"/>
<path id="XMLID_669_" class="st0" d="M341.85,392.27c-0.14-2.34-1.83-4.28-4.18-4.32l-31.22-0.03c-3.88-0.06-7.08,3.03-7.14,6.91
	c-0.06,3.88,3.03,7.08,6.91,7.14c0,0,6.16-0.3,7.24,7.07c3.38,23.1-11.61,41.25-11.61,41.25c3.73,2.26,7.67,4.53,12.1,4.61
	c11.2,0.19,21.08-7.48,26.26-18.94C340.21,435.96,343.94,428.59,341.85,392.27z"/>
</svg>
